<?xml version="1.0" encoding="UTF-8"?>
<svg xmlns="http://www.w3.org/2000/svg" viewBox="0 0 64 64" width="256" height="256" role="img" aria-labelledby="title">
  <title>Volunteers</title>
  <defs>
    <style> .green{fill:#2e8b57} .green-dark{fill:#196f45} .green-light{fill:#4caf50} .faint{opacity:0.12}</style>
  </defs>
  <!-- three stylized persons -->
  <g transform="translate(2 4)">
    <circle class="green" cx="20" cy="10" r="6" />
    <path class="green" d="M8 40c0-7.732 6.268-14 14-14s14 6.268 14 14v2H8v-2z" />

    <circle class="green-dark" cx="6" cy="18" r="4" />
    <path class="green-dark" d="M0 44c0-4.418 3.582-8 8-8s8 3.582 8 8v1H0v-1z"/>

    <circle class="green-light" cx="34" cy="18" r="4" />
    <path class="green-light" d="M28 44c0-4.418 3.582-8 8-8s8 3.582 8 8v1H28v-1z"/>

    <!-- faint background circle -->
    <circle class="green faint" cx="20" cy="20" r="28" />
  </g>
</svg>
